<svg xmlns="http://www.w3.org/2000/svg" viewBox="0 0 240 234">
    <path d="M27.7 128.8v-23.2a28 28 0 0 0 10.1-2c2.3-1.1 4.3-3 6-5.6a25 25 0 0 0 3.4-9.7c.5-2.9.7-8 .7-15.2 0-11.7.6-20 1.7-24.6 1-4.6 3-8.4 6-11.2a30 30 0 0 1 12.6-6.7C72 29.6 78 29 86 29h4.9v21.7A46 46 0 0 0 77.7 52c-2 .7-3.4 1.9-4.3 3.4-1 1.6-1.4 4.2-1.4 8s-.2 11-.8 21.8c-.3 6-1.1 10.8-2.4 14.6-1.3 3.7-3 6.8-5 9.2-2 2.4-5 6.3-9.1 9a28.9 28.9 0 0 1 14.2 17.3c1.2 3.9 2 9.2 2.4 15.8l.6 19.3c0 4 .5 6.8 1.5 8.4 1 1.5 2.5 2.7 4.5 3.5 2 .9 6.3 1.3 13 1.3v21.8h-5c-8.2 0-14.6-.6-19-2a26 26 0 0 1-11.3-6.4c-3-3-5-6.8-6.1-11.3-1-4.4-1.6-11.5-1.6-21 0-11.2-.5-18.5-1.5-21.8a19.1 19.1 0 0 0-6.1-10.4c-2.8-2.1-7-3.3-12.6-3.6M212.5 128.8a28 28 0 0 0-10.2 2c-2.2 1-4.2 2.9-5.8 5.5a26.5 26.5 0 0 0-3.5 9.7c-.5 2.9-.7 8-.7 15 0 11.9-.6 20-1.7 24.8-1 4.6-3 8.4-6 11.2-2.8 2.8-7 5-12.7 6.7-3.7 1-9.7 1.6-17.7 1.6h-5v-21.8c6.7 0 11-.4 13-1.3a9 9 0 0 0 4.5-3.5c1-1.6 1.4-4.2 1.5-7.9 0-3.7.3-10.8.8-21.2a54 54 0 0 1 2.5-15.2c1.3-3.7 3.1-7 5.4-9.6a32 32 0 0 1 8.6-7 36 36 0 0 1-15.9-25.2c-.7-4.2-1.2-13.6-1.5-28 0-4.6-.4-7.6-1.2-9.1a7.7 7.7 0 0 0-4.2-3.5c-2-.8-6.5-1.3-13.4-1.3V29h4.9c8.3 0 14.7.6 19.1 1.9a23.6 23.6 0 0 1 17.3 17.8c1.1 4.5 1.7 11.5 1.7 21 0 11.2.4 18.4 1.3 21.8a19 19 0 0 0 6.2 10.5c2.8 2 7 3.2 12.7 3.6v23.2z"/>
    <path d="M91 214.2H28a8.2 8.2 0 0 1-8.4-8.1V27.5c0-4.5 3.7-8.2 8.3-8.2h63V0H0v233.6h91v-19.4zM212 0h-62.7v19.3H212c4.6 0 8.3 3.7 8.3 8.2v178.6c0 4.5-3.7 8.1-8.3 8.1h-62.8v19.4H240V0h-28z"/>
</svg>
